<svg version="1.1" id="Layer_1" xmlns="http://www.w3.org/2000/svg" xmlns:xlink="http://www.w3.org/1999/xlink" x="0px" y="0px"
	 width="100%" viewBox="0 0 512 512" enable-background="new 0 0 512 512" xml:space="preserve">
<path fill="#FFFFFF" opacity="1.000000" stroke="none" 
	d="
M513.000000,186.000000 
	C513.000000,295.306763 513.000000,404.113525 513.000000,512.960144 
	C342.401550,512.960144 171.803116,512.960144 1.102331,512.960144 
	C1.102331,342.443268 1.102331,171.886444 1.102331,1.164816 
	C171.666534,1.164816 342.333252,1.164816 513.000000,1.164816 
	C513.000000,62.530186 513.000000,124.015091 513.000000,186.000000 
M49.099804,273.200348 
	C48.732891,274.722351 48.096375,276.236145 48.049671,277.767914 
	C47.910061,282.346649 48.002476,286.932404 48.002464,291.515442 
	C48.002335,342.291595 48.028233,393.067749 47.941551,443.843781 
	C47.935833,447.194122 49.123306,448.056702 52.301014,448.052673 
	C109.902718,447.979553 167.504547,448.012939 225.106171,447.918365 
	C226.404327,447.916229 227.700455,446.688385 229.874283,445.903503 
	C243.913925,446.009552 257.953583,446.115601 272.218628,446.979614 
	C273.592834,447.319885 274.966797,447.956635 276.341278,447.957794 
	C334.670258,448.007111 392.999359,447.966003 451.328156,448.076813 
	C455.142426,448.084045 456.076965,446.860748 456.070587,443.206451 
	C455.969849,385.377563 456.012573,327.548431 455.935852,269.719482 
	C455.933685,268.093506 454.976166,266.468811 454.375977,263.925873 
	C454.570587,261.619141 455.003174,259.303986 454.921753,257.007019 
	C454.330627,240.333817 453.635773,223.664261 453.808594,206.966812 
	C454.538605,205.577271 455.904114,204.189041 455.906952,202.798035 
	C456.015472,149.677490 455.969086,96.556648 456.066345,43.436069 
	C456.072845,39.888420 454.905090,38.934338 451.477264,38.939384 
	C393.527466,39.024723 335.577484,38.986580 277.627686,39.068710 
	C276.031250,39.070976 274.436249,40.103199 271.924896,40.726589 
	C256.618011,40.756912 241.311111,40.787235 225.785889,40.053589 
	C224.585754,39.702579 223.385895,39.045567 222.185440,39.044502 
	C165.539825,38.994267 108.894135,39.022655 52.248581,38.944813 
	C49.003223,38.940353 47.938648,39.927826 47.943439,43.214092 
	C48.023933,98.468086 47.987740,153.722244 48.075935,208.976212 
	C48.078079,210.319672 49.207664,211.661346 49.907104,213.828232 
	C49.570007,217.132812 48.909431,220.441406 48.950439,223.741302 
	C49.154491,240.161194 49.543186,256.578796 49.099804,273.200348 
z"/>
<path fill="#021D2A" opacity="1.000000" stroke="none" 
	d="
M226.004211,40.817554 
	C241.311111,40.787235 256.618011,40.756912 272.747650,40.807716 
	C298.825287,44.314587 323.017059,51.309303 345.674622,63.065315 
	C389.713684,85.915237 422.335297,119.582886 440.705963,165.990616 
	C445.937347,179.206146 448.945892,193.301605 452.973755,206.993561 
	C453.635773,223.664261 454.330627,240.333817 454.921753,257.007019 
	C455.003174,259.303986 454.570587,261.619141 454.276978,264.752808 
	C453.444641,270.680267 452.863190,275.807983 451.954468,280.877075 
	C442.761932,332.156219 417.132111,373.495270 375.957336,405.129425 
	C345.288208,428.692139 310.426941,442.084625 271.993225,446.221649 
	C257.953583,446.115601 243.913925,446.009552 229.065094,445.813782 
	C215.771820,442.924774 203.031952,440.952576 190.847565,437.184296 
	C135.537964,420.078735 94.951515,385.287323 68.782127,333.693115 
	C59.069077,314.543396 53.358932,294.106049 49.866871,272.997223 
	C49.543186,256.578796 49.154491,240.161194 48.950439,223.741302 
	C48.909431,220.441406 49.570007,217.132812 49.977928,213.023346 
	C50.343307,210.583740 50.639107,208.949249 50.932240,207.314255 
	C60.464539,154.147171 86.600372,111.157814 130.251801,79.223763 
	C158.826324,58.319496 191.179474,46.373283 226.004211,40.817554 
M355.091217,262.096222 
	C355.091217,262.096222 355.393799,262.365753 354.804169,262.365540 
	C354.516296,262.844360 354.228455,263.323212 353.637238,264.408234 
	C345.616211,272.546051 337.627655,280.716248 329.556824,288.804413 
	C326.670288,291.697144 323.584930,294.391479 319.756897,297.084290 
	C318.503113,297.407898 317.249359,297.731506 315.334747,298.169403 
	C314.165771,297.289917 312.996796,296.410431 311.915955,294.673126 
	C311.589264,293.108765 311.262573,291.544373 310.910858,289.358948 
	C311.264435,288.881409 311.618042,288.403900 312.278015,288.266998 
	C312.497986,287.793549 312.717957,287.320099 313.195465,286.237366 
	C323.516296,276.000519 333.837097,265.763672 344.996735,255.772812 
	C347.004059,254.985367 349.369781,254.621490 350.927826,253.303101 
	C352.867340,251.661942 351.921082,250.192108 349.849152,249.115234 
	C350.176147,246.251526 350.503113,243.387833 350.883514,239.817413 
	C350.313110,239.210449 349.742706,238.603470 348.681458,237.687943 
	C347.810425,236.959198 346.939362,236.230453 345.661560,234.762115 
	C344.873169,234.584549 344.084747,234.406998 342.530121,234.303085 
	C336.827759,233.018768 333.055878,236.238159 329.428497,239.870819 
	C314.713135,254.607483 300.258453,269.619110 285.172211,283.966339 
	C271.806702,296.677094 266.276428,312.174805 266.231628,330.127991 
	C266.164734,356.956146 266.110748,383.784332 266.059143,410.612518 
	C266.043945,418.502991 266.530060,418.946777 274.255310,417.763367 
	C293.513611,414.813232 311.744354,408.834839 328.854553,399.428314 
	C331.249451,398.111694 332.057037,396.687592 332.039001,394.008057 
	C331.939026,379.178436 331.888519,364.344238 332.209839,349.520020 
	C332.267151,346.875671 333.473267,343.612610 335.290314,341.746765 
	C361.443176,314.891571 387.829559,288.263885 414.014160,261.439331 
	C415.908356,259.498871 417.735809,256.483124 417.794922,253.925751 
	C418.172058,237.603653 418.052551,221.269913 418.067108,204.939987 
	C418.068176,203.741425 417.838318,202.542648 417.696747,201.157166 
	C411.587891,206.991028 405.823486,212.495987 399.280121,218.005936 
	C395.864777,218.437424 393.777435,219.983627 394.082092,224.338058 
	C388.676575,229.544907 383.271057,234.751770 377.213989,240.091599 
	C376.881195,240.601379 376.548401,241.111176 375.969177,242.130341 
	C375.265747,242.740402 374.562347,243.350464 373.253357,244.061203 
	C372.828125,244.681976 372.402924,245.302750 371.707764,246.544601 
	C366.742371,251.344376 361.776978,256.144135 356.223297,261.051697 
	C355.936584,261.500031 355.649841,261.948334 355.091217,262.096222 
M405.997498,316.001190 
	C405.997498,316.001190 406.010010,316.018677 406.590698,315.739410 
	C407.065033,314.826141 407.539337,313.912903 408.584442,312.568939 
	C409.787445,307.989960 410.990448,303.410980 412.193451,298.831970 
	C411.632660,298.588959 411.071838,298.345947 410.511017,298.102936 
	C407.497589,300.868988 404.500122,303.652771 401.463440,306.393066 
	C400.084412,307.637543 398.706940,308.908997 397.191010,309.971710 
	C392.828613,313.029877 388.395996,315.987885 383.612305,319.254303 
	C383.742340,319.835358 383.872375,320.416443 383.512268,321.554443 
	C374.138245,323.868652 367.797638,330.666687 368.725067,337.565308 
	C370.165253,337.051910 371.585175,336.545715 373.818573,336.014038 
	C377.212372,335.008179 380.606171,334.002319 384.721161,332.929352 
	C387.538147,331.590881 390.773346,330.749237 393.081512,328.806274 
	C397.348145,325.214752 401.071655,320.978027 405.002991,316.996307 
	C405.002991,316.996307 405.002380,317.018524 405.459442,316.814758 
	C405.645660,316.544373 405.831848,316.274017 405.997498,316.001190 
M353.275116,229.586014 
	C354.849579,231.058105 356.424042,232.530197 358.298767,234.492584 
	C358.873444,234.981247 359.448090,235.469925 360.016357,236.646255 
	C360.501373,237.290833 360.986359,237.935425 361.471344,238.580017 
	C361.660034,237.725952 361.848724,236.871887 362.457123,235.457367 
	C364.532867,234.237717 366.900848,233.334961 368.630554,231.740021 
	C374.199280,226.605179 379.532593,221.215057 385.365875,216.424515 
	C385.915009,215.294754 386.464142,214.164993 387.283234,212.447647 
	C388.530731,210.970001 389.778198,209.492355 390.998291,208.001328 
	C390.998291,208.001328 391.017517,208.026062 391.470978,207.805435 
	C391.670868,207.539764 391.870728,207.274094 392.756653,206.932251 
	C399.167694,200.291092 405.578705,193.649933 412.273224,186.377716 
	C413.190582,185.053604 414.107941,183.729477 414.961090,182.498093 
	C408.157379,172.802551 400.152191,179.010880 392.732727,180.823227 
	C392.006897,178.848907 391.450531,177.335480 391.076080,176.316910 
	C389.614807,177.576447 388.199402,178.796463 386.447937,180.306152 
	C386.689301,180.636780 387.501160,181.748856 388.840332,183.583191 
	C385.022675,184.550537 381.637482,185.558655 378.187256,186.234985 
	C375.420959,186.777283 373.412354,187.660767 373.498840,191.558044 
	C370.510895,191.293076 367.522949,191.028107 364.535858,190.763214 
	C364.673279,192.624252 364.812317,194.507172 364.994812,196.978424 
	C357.726746,194.803055 356.271362,201.436722 354.618317,204.560699 
	C352.225891,209.081924 350.169678,208.822433 346.317932,207.024750 
	C345.641571,210.110077 345.053314,212.793533 344.400513,215.771362 
	C343.508026,215.940979 341.936829,216.239563 341.296570,216.361252 
	C339.718109,219.950195 338.457031,222.817535 337.057068,226.000610 
	C339.118134,226.000610 341.559052,226.000610 344.759735,226.086624 
	C346.511169,226.386841 348.262634,226.687042 350.506012,226.994278 
	C350.506012,226.994278 350.997803,227.008865 351.080658,227.646790 
	C351.715332,228.099289 352.350006,228.551788 353.275116,229.586014 
M91.078957,186.695129 
	C93.603096,189.812592 96.021385,193.025330 98.701462,196.002411 
	C99.834419,197.260925 101.518211,198.023560 103.230377,199.630188 
	C111.375000,208.120804 119.506783,216.623840 127.694603,225.072601 
	C128.212311,225.606781 129.166489,225.718002 130.232681,226.624496 
	C133.702484,230.420822 137.172302,234.217148 141.037689,238.446274 
	C143.044556,235.565811 144.594238,233.341537 146.758179,230.974472 
	C147.181473,230.325912 147.604767,229.677353 148.002457,228.999771 
	C148.002457,228.999771 148.038422,229.025482 148.745758,229.010406 
	C150.499619,228.008575 152.253464,227.006729 154.843567,226.001968 
	C163.285507,227.657944 159.221222,219.803543 161.316010,217.889832 
	C158.691635,214.609680 156.497238,211.583023 153.973495,208.861816 
	C153.051270,207.867432 151.346756,207.598557 150.000000,207.000000 
	C150.000000,207.000000 150.001816,207.001785 150.052948,206.324966 
	C149.457352,205.545563 148.956009,204.201309 148.250015,204.083481 
	C145.010468,203.542908 142.636246,202.711319 142.792847,198.579559 
	C142.847702,197.132538 141.218094,195.621658 140.357697,194.139938 
	C140.005020,194.310257 139.652344,194.480591 139.299667,194.650909 
	C139.095581,196.181061 138.891479,197.711212 138.687393,199.241364 
	C138.277344,199.301575 137.867279,199.361771 137.457230,199.421982 
	C137.277374,198.616913 137.023193,197.820251 136.930969,197.005264 
	C136.591568,194.006607 136.305893,191.001846 136.000412,187.177155 
	C135.621750,181.107788 133.181152,179.702896 126.271225,181.917923 
	C124.848259,181.613892 123.425293,181.309860 121.609406,180.530258 
	C120.076210,181.018524 118.543015,181.506790 117.005753,181.329208 
	C117.004768,180.885300 117.003784,180.441406 117.423264,179.468643 
	C120.366127,178.295303 121.864761,176.630890 119.536201,173.566589 
	C115.817261,175.230789 115.926109,175.110016 112.705223,172.206955 
	C111.628822,171.236771 109.715736,170.396469 108.400566,170.643585 
	C104.856735,171.309387 101.428978,172.592972 97.381226,173.802933 
	C97.030594,175.652283 96.449562,178.716858 95.736450,182.478058 
	C93.025581,180.451218 91.225418,179.105270 88.919350,177.381088 
	C88.317139,180.886627 87.962196,183.787033 91.078957,186.695129 
M92.996162,309.750854 
	C93.506546,311.131714 93.855820,312.600342 94.552574,313.879700 
	C100.654587,325.084076 110.901062,330.812256 122.477226,334.612000 
	C126.657288,335.984070 131.013504,336.819489 135.289322,337.899811 
	C135.422897,337.570801 135.556458,337.241760 135.690018,336.912720 
	C134.127853,335.270264 132.565704,333.627838 131.003601,331.176514 
	C131.439667,324.524109 124.654366,322.584686 121.816032,317.987518 
	C119.175690,313.710968 112.545776,311.915405 109.041679,307.262146 
	C108.587013,306.658356 107.704941,306.394501 107.085220,305.893524 
	C105.292732,304.444641 103.533096,302.955048 101.598358,301.346588 
	C99.890900,300.929169 97.662910,300.384521 94.984077,299.729645 
	C93.881958,300.413025 92.210365,301.449524 90.106628,302.753998 
	C91.103111,304.927338 92.037933,306.966156 92.996162,309.750854 
M236.730316,320.988678 
	C235.138489,308.238007 230.647232,296.906128 221.269287,287.696899 
	C205.814713,272.520294 190.543030,257.157532 175.182480,241.885086 
	C173.410690,240.123459 171.660370,238.319458 169.732300,236.739944 
	C165.247574,233.065948 158.774292,233.519165 154.777588,237.653381 
	C150.624725,241.949158 150.670395,246.932098 155.190643,251.630219 
	C160.272018,256.911530 165.547760,262.005524 170.721634,267.198242 
	C177.423996,273.925079 184.161179,280.618591 190.774796,287.431793 
	C193.214478,289.945099 194.099045,292.896454 191.414734,295.878876 
	C188.798172,298.785980 185.553589,298.950104 182.342468,297.204041 
	C180.641495,296.279144 179.240845,294.733978 177.841568,293.332092 
	C148.531693,263.967316 119.242424,234.582016 89.943817,205.206009 
	C88.732086,203.991104 87.469078,202.827347 85.298981,200.747498 
	C85.298981,203.725800 85.293510,205.323929 85.299828,206.922028 
	C85.352493,220.254745 85.895027,233.610031 85.279503,246.911758 
	C84.907356,254.954071 87.566422,260.576416 93.175468,266.149445 
	C117.408058,290.226349 141.190582,314.755646 165.302826,338.954956 
	C169.299118,342.965637 171.391556,346.944702 171.182587,352.875000 
	C170.701630,366.524200 170.971298,380.203552 171.152481,393.867767 
	C171.174744,395.547882 172.054276,398.091553 173.312851,398.749115 
	C192.034821,408.530365 211.784790,415.261597 232.795044,418.084381 
	C236.229614,418.545837 237.094986,417.110291 237.048401,413.885529 
	C236.884705,402.554840 236.963730,391.220673 236.943085,379.887848 
	C236.907852,360.559540 236.866928,341.231232 236.730316,320.988678 
M258.539032,275.050079 
	C272.678345,260.685760 286.769104,246.273026 300.994843,231.994843 
	C304.131042,228.847107 305.608276,225.540192 305.472321,220.965744 
	C305.170593,210.812744 305.392090,200.642242 305.520599,190.480423 
	C305.540283,188.925903 305.678192,186.816742 306.646698,185.917114 
	C315.498932,177.694489 324.547150,169.682785 333.397003,161.736267 
	C347.172333,170.976196 362.034210,169.697189 370.329559,159.018326 
	C378.636230,148.324890 377.113495,133.494431 366.776978,124.418373 
	C355.206329,114.258675 341.892212,116.261726 327.958710,130.119202 
	C312.711670,122.714279 297.533783,115.342941 282.368042,107.977516 
	C282.026703,105.502075 281.927368,102.809807 281.259613,100.266808 
	C277.573425,86.228935 264.377533,76.792046 250.272537,77.954483 
	C236.646606,79.077454 225.349472,90.705124 223.713776,104.936005 
	C223.514114,106.673096 222.195190,109.016464 220.727386,109.758736 
	C206.655884,116.874779 192.440750,123.706856 178.156738,130.674011 
	C167.712662,117.765312 153.966232,114.430595 142.387894,122.333084 
	C131.942474,129.462326 128.642929,144.195435 134.919296,155.197739 
	C141.918137,167.466507 158.557693,172.813492 173.860596,162.239349 
	C181.218384,169.324661 188.731064,176.393402 195.990021,183.713745 
	C197.188110,184.921982 197.765884,187.224777 197.794083,189.034729 
	C197.960129,199.695099 198.128448,210.367798 197.766434,221.018341 
	C197.605026,225.767288 199.095215,229.183868 202.353928,232.459076 
	C216.568634,246.745712 230.675186,261.140991 244.724991,275.590210 
	C251.457291,282.513916 251.360504,282.608032 258.539032,275.050079 
M145.525726,363.314331 
	C144.222214,356.850311 139.165771,353.731018 135.486267,357.418457 
	C133.792572,359.115845 132.504196,362.475708 132.967133,364.674255 
	C133.346512,366.475861 136.406937,368.428436 138.608719,368.968018 
	C142.172455,369.841339 144.485458,367.598999 145.525726,363.314331 
M200.149033,96.158287 
	C200.783432,92.169441 199.284988,89.224548 195.422775,88.076584 
	C192.291550,87.145897 189.486328,88.157806 187.923813,91.277115 
	C186.265686,94.587296 186.345016,97.686317 189.693695,99.993553 
	C193.313171,102.487366 196.857208,101.414841 200.149033,96.158287 
M319.148346,96.176071 
	C319.662354,92.920212 319.046295,89.797394 315.719879,88.762970 
	C313.639404,88.116013 310.356171,88.176071 308.927795,89.424110 
	C307.286102,90.858521 306.166168,94.125031 306.559937,96.277367 
	C306.896667,98.117813 309.443420,100.256310 311.458038,100.928795 
	C314.784485,102.039185 317.629059,100.524170 319.148346,96.176071 
M361.805878,369.195374 
	C365.621582,369.556549 368.331604,368.145203 369.140900,364.221252 
	C369.850433,360.781036 368.906525,357.399048 365.367065,356.659424 
	C363.095947,356.184814 359.745392,357.147797 357.994812,358.713928 
	C354.708069,361.654419 356.294128,366.198975 361.805878,369.195374 
M345.527924,266.314514 
	C344.979858,265.975281 344.431824,265.636047 343.883759,265.296783 
	C343.748657,265.571472 343.613556,265.846161 343.478455,266.120850 
	C344.015137,266.326172 344.551849,266.531525 345.527924,266.314514 
M383.812836,183.741821 
	C383.972626,183.625610 384.132416,183.509415 384.292206,183.393188 
	C384.069611,183.416946 383.847015,183.440704 383.812836,183.741821 
M394.517365,305.412689 
	C394.517365,305.412689 394.583893,305.524536 394.517365,305.412689 
M144.589203,197.517853 
	C144.589203,197.517853 144.476105,197.585739 144.589203,197.517853 
M413.588898,177.517929 
	C413.588898,177.517929 413.476746,177.585464 413.588898,177.517929 
M395.518524,177.407333 
	C395.518524,177.407333 395.589600,177.523727 395.518524,177.407333 
M403.590454,174.518478 
	C403.590454,174.518478 403.476868,174.587311 403.590454,174.518478 
M116.482887,169.590332 
	C116.482887,169.590332 116.414734,169.477005 116.482887,169.590332 
M112.411293,169.482880 
	C112.411293,169.482880 112.523056,169.415955 112.411293,169.482880 
z"/>
<path fill="#F4FDFD" opacity="1.000000" stroke="none" 
	d="
M272.105927,446.600647 
	C310.426941,442.084625 345.288208,428.692139 375.957336,405.129425 
	C417.132111,373.495270 442.761932,332.156219 451.954468,280.877075 
	C452.863190,275.807983 453.444641,270.680267 454.321045,265.211609 
	C454.976166,266.468811 455.933685,268.093506 455.935852,269.719482 
	C456.012573,327.548431 455.969849,385.377563 456.070587,443.206451 
	C456.076965,446.860748 455.142426,448.084045 451.328156,448.076813 
	C392.999359,447.966003 334.670258,448.007111 276.341278,447.957794 
	C274.966797,447.956635 273.592834,447.319885 272.105927,446.600647 
z"/>
<path fill="#F4FDFD" opacity="1.000000" stroke="none" 
	d="
M453.391174,206.980194 
	C448.945892,193.301605 445.937347,179.206146 440.705963,165.990616 
	C422.335297,119.582886 389.713684,85.915237 345.674622,63.065315 
	C323.017059,51.309303 298.825287,44.314587 273.205505,40.771996 
	C274.436249,40.103199 276.031250,39.070976 277.627686,39.068710 
	C335.577484,38.986580 393.527466,39.024723 451.477264,38.939384 
	C454.905090,38.934338 456.072845,39.888420 456.066345,43.436069 
	C455.969086,96.556648 456.015472,149.677490 455.906952,202.798035 
	C455.904114,204.189041 454.538605,205.577271 453.391174,206.980194 
z"/>
<path fill="#F4FDFD" opacity="1.000000" stroke="none" 
	d="
M49.483337,273.098785 
	C53.358932,294.106049 59.069077,314.543396 68.782127,333.693115 
	C94.951515,385.287323 135.537964,420.078735 190.847565,437.184296 
	C203.031952,440.952576 215.771820,442.924774 228.626709,445.878174 
	C227.700455,446.688385 226.404327,447.916229 225.106171,447.918365 
	C167.504547,448.012939 109.902718,447.979553 52.301014,448.052673 
	C49.123306,448.056702 47.935833,447.194122 47.941551,443.843781 
	C48.028233,393.067749 48.002335,342.291595 48.002464,291.515442 
	C48.002476,286.932404 47.910061,282.346649 48.049671,277.767914 
	C48.096375,276.236145 48.732891,274.722351 49.483337,273.098785 
z"/>
<path fill="#F5FDFD" opacity="1.000000" stroke="none" 
	d="
M225.895050,40.435570 
	C191.179474,46.373283 158.826324,58.319496 130.251801,79.223763 
	C86.600372,111.157814 60.464539,154.147171 50.932240,207.314255 
	C50.639107,208.949249 50.343307,210.583740 49.930077,212.611160 
	C49.207664,211.661346 48.078079,210.319672 48.075935,208.976212 
	C47.987740,153.722244 48.023933,98.468086 47.943439,43.214092 
	C47.938648,39.927826 49.003223,38.940353 52.248581,38.944813 
	C108.894135,39.022655 165.539825,38.994267 222.185440,39.044502 
	C223.385895,39.045567 224.585754,39.702579 225.895050,40.435570 
z"/>
<path fill="#FDFDFE" opacity="1.000000" stroke="none" 
	d="
M350.830109,240.524124 
	C350.503113,243.387833 350.176147,246.251526 349.403015,249.656967 
	C347.357208,251.974731 345.757568,253.750763 344.157928,255.526794 
	C333.837097,265.763672 323.516296,276.000519 312.812469,286.624023 
	C312.276855,287.315887 312.124237,287.621124 311.971619,287.926361 
	C311.618042,288.403900 311.264435,288.881409 310.708282,289.932373 
	C310.946411,292.180878 311.387115,293.855896 311.827820,295.530945 
	C312.996796,296.410431 314.165771,297.289917 316.060638,298.236420 
	C318.054474,297.927734 319.322388,297.552063 320.590332,297.176392 
	C323.584930,294.391479 326.670288,291.697144 329.556824,288.804413 
	C337.627655,280.716248 345.616211,272.546051 354.040405,264.014038 
	C354.760284,263.201782 355.077026,262.783752 355.393799,262.365753 
	C355.393799,262.365753 355.091217,262.096222 355.476807,262.148682 
	C356.178772,261.782043 356.495178,261.362976 356.811584,260.943909 
	C361.776978,256.144135 366.742371,251.344376 372.112122,246.143921 
	C372.963989,245.149002 373.411469,244.554779 373.858948,243.960541 
	C374.562347,243.350464 375.265747,242.740402 376.374451,241.756683 
	C377.141663,240.908234 377.503601,240.433426 377.865540,239.958633 
	C383.271057,234.751770 388.676575,229.544907 394.545105,223.905884 
	C396.691772,221.649445 398.375397,219.825195 400.059052,218.000931 
	C405.823486,212.495987 411.587891,206.991028 417.696747,201.157166 
	C417.838318,202.542648 418.068176,203.741425 418.067108,204.939987 
	C418.052551,221.269913 418.172058,237.603653 417.794922,253.925751 
	C417.735809,256.483124 415.908356,259.498871 414.014160,261.439331 
	C387.829559,288.263885 361.443176,314.891571 335.290314,341.746765 
	C333.473267,343.612610 332.267151,346.875671 332.209839,349.520020 
	C331.888519,364.344238 331.939026,379.178436 332.039001,394.008057 
	C332.057037,396.687592 331.249451,398.111694 328.854553,399.428314 
	C311.744354,408.834839 293.513611,414.813232 274.255310,417.763367 
	C266.530060,418.946777 266.043945,418.502991 266.059143,410.612518 
	C266.110748,383.784332 266.164734,356.956146 266.231628,330.127991 
	C266.276428,312.174805 271.806702,296.677094 285.172211,283.966339 
	C300.258453,269.619110 314.713135,254.607483 329.428497,239.870819 
	C333.055878,236.238159 336.827759,233.018768 343.191833,234.537308 
	C344.591827,235.014923 345.330078,235.258331 346.068329,235.501724 
	C346.939362,236.230453 347.810425,236.959198 349.004364,238.143173 
	C349.828217,239.240311 350.329163,239.882217 350.830109,240.524124 
z"/>
<path fill="#FDFDFD" opacity="1.000000" stroke="none" 
	d="
M236.779358,321.445801 
	C236.866928,341.231232 236.907852,360.559540 236.943085,379.887848 
	C236.963730,391.220673 236.884705,402.554840 237.048401,413.885529 
	C237.094986,417.110291 236.229614,418.545837 232.795044,418.084381 
	C211.784790,415.261597 192.034821,408.530365 173.312851,398.749115 
	C172.054276,398.091553 171.174744,395.547882 171.152481,393.867767 
	C170.971298,380.203552 170.701630,366.524200 171.182587,352.875000 
	C171.391556,346.944702 169.299118,342.965637 165.302826,338.954956 
	C141.190582,314.755646 117.408058,290.226349 93.175468,266.149445 
	C87.566422,260.576416 84.907356,254.954071 85.279503,246.911758 
	C85.895027,233.610031 85.352493,220.254745 85.299828,206.922028 
	C85.293510,205.323929 85.298981,203.725800 85.298981,200.747498 
	C87.469078,202.827347 88.732086,203.991104 89.943817,205.206009 
	C119.242424,234.582016 148.531693,263.967316 177.841568,293.332092 
	C179.240845,294.733978 180.641495,296.279144 182.342468,297.204041 
	C185.553589,298.950104 188.798172,298.785980 191.414734,295.878876 
	C194.099045,292.896454 193.214478,289.945099 190.774796,287.431793 
	C184.161179,280.618591 177.423996,273.925079 170.721634,267.198242 
	C165.547760,262.005524 160.272018,256.911530 155.190643,251.630219 
	C150.670395,246.932098 150.624725,241.949158 154.777588,237.653381 
	C158.774292,233.519165 165.247574,233.065948 169.732300,236.739944 
	C171.660370,238.319458 173.410690,240.123459 175.182480,241.885086 
	C190.543030,257.157532 205.814713,272.520294 221.269287,287.696899 
	C230.647232,296.906128 235.138489,308.238007 236.779358,321.445801 
z"/>
<path fill="#F9FBFB" opacity="1.000000" stroke="none" 
	d="
M258.290710,275.305023 
	C251.360504,282.608032 251.457291,282.513916 244.724991,275.590210 
	C230.675186,261.140991 216.568634,246.745712 202.353928,232.459076 
	C199.095215,229.183868 197.605026,225.767288 197.766434,221.018341 
	C198.128448,210.367798 197.960129,199.695099 197.794083,189.034729 
	C197.765884,187.224777 197.188110,184.921982 195.990021,183.713745 
	C188.731064,176.393402 181.218384,169.324661 173.860596,162.239349 
	C158.557693,172.813492 141.918137,167.466507 134.919296,155.197739 
	C128.642929,144.195435 131.942474,129.462326 142.387894,122.333084 
	C153.966232,114.430595 167.712662,117.765312 178.156738,130.674011 
	C192.440750,123.706856 206.655884,116.874779 220.727386,109.758736 
	C222.195190,109.016464 223.514114,106.673096 223.713776,104.936005 
	C225.349472,90.705124 236.646606,79.077454 250.272537,77.954483 
	C264.377533,76.792046 277.573425,86.228935 281.259613,100.266808 
	C281.927368,102.809807 282.026703,105.502075 282.368042,107.977516 
	C297.533783,115.342941 312.711670,122.714279 327.958710,130.119202 
	C341.892212,116.261726 355.206329,114.258675 366.776978,124.418373 
	C377.113495,133.494431 378.636230,148.324890 370.329559,159.018326 
	C362.034210,169.697189 347.172333,170.976196 333.397003,161.736267 
	C324.547150,169.682785 315.498932,177.694489 306.646698,185.917114 
	C305.678192,186.816742 305.540283,188.925903 305.520599,190.480423 
	C305.392090,200.642242 305.170593,210.812744 305.472321,220.965744 
	C305.608276,225.540192 304.131042,228.847107 300.994843,231.994843 
	C286.769104,246.273026 272.678345,260.685760 258.290710,275.305023 
M305.290039,170.252762 
	C310.006042,166.035278 314.482452,161.502487 319.503784,157.686783 
	C324.786041,153.672836 327.615143,149.154572 324.887970,141.576859 
	C310.255768,134.792923 294.787384,127.621315 279.622955,120.590637 
	C278.726410,121.431877 278.413666,121.616837 278.253662,121.890945 
	C267.546753,140.233871 241.813690,140.526169 229.694962,123.065247 
	C227.957504,120.561874 226.380646,121.113747 224.253479,122.142754 
	C210.952927,128.576828 197.642410,134.991135 184.289780,141.316147 
	C179.452469,143.607544 178.254333,149.738602 182.154739,153.538330 
	C187.401855,158.650024 192.872787,163.541092 197.953186,168.810745 
	C200.283371,171.227722 202.421417,171.948822 205.906342,171.937683 
	C237.851639,171.835556 269.798157,172.134842 301.744537,172.231140 
	C302.733124,172.234131 303.724487,171.305527 305.290039,170.252762 
M210.976746,198.508484 
	C211.031464,204.835693 210.714828,211.197647 211.302094,217.475037 
	C211.583633,220.484772 212.882965,223.981155 214.907654,226.149399 
	C226.153290,238.192352 237.758621,249.899628 249.260330,261.702789 
	C249.921097,262.380890 250.753632,262.891602 251.506226,263.480194 
	C251.127914,262.991302 250.749603,262.502380 250.371292,262.013489 
	C263.550323,249.553085 276.743073,237.107101 289.878479,224.600845 
	C290.784058,223.738632 291.836853,222.433502 291.849823,221.323029 
	C291.990936,209.224060 291.938110,197.122864 291.938110,185.046234 
	C264.637360,185.046234 237.961197,185.046234 210.973938,185.046234 
	C210.973938,189.571442 210.973938,193.541672 210.976746,198.508484 
M238.541763,109.794289 
	C239.067047,111.189285 239.420425,112.681625 240.146103,113.963135 
	C244.200653,121.122940 253.014160,123.541374 259.954956,119.481110 
	C267.606110,115.005287 269.897064,106.861023 265.606995,99.388260 
	C262.194977,93.444946 255.852524,90.989990 248.869705,92.909813 
	C242.030579,94.790123 238.337616,100.443298 238.541763,109.794289 
M342.797211,135.246979 
	C342.360382,135.743103 341.861511,136.197601 341.496429,136.741852 
	C338.175049,141.693115 338.929688,147.500854 343.384644,151.463348 
	C347.472443,155.099258 353.462555,155.144089 357.954102,151.572372 
	C362.184723,148.208130 363.281067,142.447540 360.586304,137.741806 
	C357.812775,132.898514 351.648834,130.825241 346.370239,133.030411 
	C345.317932,133.470001 344.383209,134.191132 342.797211,135.246979 
M166.124725,148.178085 
	C168.776428,140.756851 166.444702,134.998505 159.918274,132.850876 
	C153.624054,130.779648 147.225891,134.275040 145.548279,140.701385 
	C144.276703,145.572281 146.479401,150.542511 150.962769,152.918808 
	C156.220184,155.705368 161.264496,154.334747 166.124725,148.178085 
z"/>
<path fill="#0E2C40" opacity="1.000000" stroke="none" 
	d="
M411.989746,187.008774 
	C405.578705,193.649933 399.167694,200.291092 392.148132,206.962585 
	C391.363159,206.990158 391.186646,206.987381 390.839813,206.748016 
	C390.071259,206.417572 389.473053,206.323715 388.874847,206.229874 
	C388.850861,206.438797 388.826874,206.647705 388.802887,206.856628 
	C389.529236,206.910507 390.255585,206.964386 390.984558,207.270447 
	C390.997284,207.690430 391.007416,207.858246 391.017517,208.026062 
	C391.017517,208.026062 390.998291,208.001328 390.611145,208.045563 
	C386.886230,209.159470 383.357758,209.851807 380.268372,211.413010 
	C377.588348,212.767349 375.405579,215.105789 372.856750,216.705307 
	C369.886078,212.744308 367.039490,209.491653 361.823822,213.005127 
	C361.102570,213.490982 359.299164,212.370377 357.949890,211.666306 
	C356.044525,209.336838 355.808746,207.719223 358.817871,206.575623 
	C361.686432,205.485443 364.487579,204.217850 366.196899,203.499527 
	C368.486908,201.037964 369.949707,199.182938 371.700531,197.658798 
	C373.664368,195.949188 375.888641,194.538757 378.346283,193.001450 
	C379.649353,193.061462 380.806335,193.495071 381.528198,193.110977 
	C385.015656,191.255295 388.386108,189.179657 391.798035,187.182007 
	C392.143372,187.567261 392.488708,187.952499 392.834045,188.337753 
	C392.834045,187.006775 392.834045,185.675797 392.834045,183.259659 
	C395.180359,184.907898 396.781036,186.032333 398.883759,187.509476 
	C400.200714,186.994888 402.271576,186.185730 404.112335,185.466476 
	C405.107025,186.713379 405.961945,187.785110 406.816895,188.856842 
	C407.091766,188.651230 407.366669,188.445602 407.641541,188.239990 
	C407.242432,186.704407 406.843323,185.168823 406.390076,183.424988 
	C408.559814,184.813614 410.274780,185.911194 411.989746,187.008774 
M363.408783,207.480927 
	C363.408783,207.480927 363.522797,207.411545 363.408783,207.480927 
M365.481476,205.591171 
	C365.481476,205.591171 365.411133,205.475784 365.481476,205.591171 
z"/>
<path fill="#123247" opacity="1.000000" stroke="none" 
	d="
M148.028076,229.028793 
	C147.604767,229.677353 147.181473,230.325912 146.236511,230.781647 
	C142.922256,229.977966 140.129654,229.367096 136.308441,228.531219 
	C138.739746,227.074631 139.875381,226.394272 141.910522,225.175034 
	C138.182419,224.183426 135.460114,223.459335 132.941086,222.789337 
	C131.952606,223.847519 130.935104,224.936752 129.917618,226.025986 
	C129.166489,225.718002 128.212311,225.606781 127.694603,225.072601 
	C119.506783,216.623840 111.375000,208.120804 103.442276,199.264252 
	C106.297501,196.362442 107.228149,190.559570 113.168060,194.241486 
	C113.886497,194.642334 114.439941,194.798950 114.884995,195.247009 
	C114.686142,196.293289 114.231941,197.387604 114.566353,197.745926 
	C116.286697,199.589294 118.209549,201.243683 120.353516,203.235077 
	C120.762054,203.045181 121.873260,202.528702 123.105309,202.286438 
	C126.219460,204.717133 129.213165,204.755692 131.994202,202.622223 
	C133.714508,205.734177 134.714584,209.860779 137.306931,211.564148 
	C139.772858,213.184479 143.902390,212.273026 147.300476,212.474731 
	C146.085373,213.453186 144.870270,214.431641 143.655182,215.410095 
	C145.880035,216.055222 148.104889,216.700348 150.329742,217.345474 
	C150.698410,217.090668 151.067078,216.835846 151.435730,216.581024 
	C150.506775,216.581024 149.577805,216.581024 148.648849,216.581024 
	C148.518021,216.915115 148.387207,217.249207 148.256378,217.583298 
	C150.022064,218.740189 151.787750,219.897079 153.825760,221.232407 
	C153.088623,221.541672 152.545303,221.769623 151.947571,221.857910 
	C151.805786,221.669296 151.718445,221.620377 151.631088,221.571442 
	C151.753235,221.714981 151.875397,221.858505 152.042603,222.332001 
	C152.727539,223.776291 153.367432,224.890594 154.007324,226.004898 
	C152.253464,227.006729 150.499619,228.008575 148.261261,228.809479 
	C147.419144,228.618515 147.061539,228.628494 146.703918,228.638474 
	C147.145309,228.768585 147.586685,228.898697 148.028076,229.028793 
M140.524399,213.617508 
	C140.468445,213.835724 140.412491,214.053940 140.356552,214.272156 
	C140.494156,214.131714 140.631760,213.991272 140.524399,213.617508 
z"/>
<path fill="#082639" opacity="1.000000" stroke="none" 
	d="
M154.425446,226.003433 
	C153.367432,224.890594 152.727539,223.776291 152.043823,222.330994 
	C152.000000,222.000000 152.001984,221.997559 152.001984,221.997559 
	C152.545303,221.769623 153.088623,221.541672 153.825760,221.232407 
	C151.787750,219.897079 150.022064,218.740189 148.256378,217.583298 
	C148.387207,217.249207 148.518021,216.915115 148.648849,216.581024 
	C149.577805,216.581024 150.506775,216.581024 151.435730,216.581024 
	C151.067078,216.835846 150.698410,217.090668 150.329742,217.345474 
	C148.104889,216.700348 145.880035,216.055222 143.655182,215.410095 
	C144.870270,214.431641 146.085373,213.453186 147.300476,212.474731 
	C143.902390,212.273026 139.772858,213.184479 137.306931,211.564148 
	C134.714584,209.860779 133.714508,205.734177 131.994202,202.622223 
	C129.213165,204.755692 126.219460,204.717133 123.252312,201.987534 
	C123.654137,200.424835 124.604797,199.190887 124.306061,198.487900 
	C123.004074,195.424133 121.338814,192.514740 119.849045,189.633499 
	C118.274010,191.359833 116.633690,193.157700 114.993378,194.955566 
	C114.439941,194.798950 113.886497,194.642334 113.312859,193.941895 
	C113.482033,191.639633 114.455803,189.314987 113.686180,188.248795 
	C112.365677,186.419449 109.956230,185.376129 108.002960,183.668915 
	C108.002113,182.889801 108.002274,182.444595 108.333412,181.999390 
	C109.105545,181.999374 109.546700,181.999390 110.384766,181.999451 
	C112.855377,181.332169 114.929085,180.664825 117.002792,179.997498 
	C117.003784,180.441406 117.004768,180.885300 117.038269,182.010574 
	C117.654449,183.747284 118.238106,184.802628 119.595314,187.256683 
	C120.730911,184.307632 121.366631,182.656723 122.002335,181.005814 
	C123.425293,181.309860 124.848259,181.613892 126.675278,182.319946 
	C129.553802,186.199265 132.028290,189.676544 135.252563,194.207458 
	C135.645081,190.947342 135.822540,189.473373 136.000000,187.999390 
	C136.305893,191.001846 136.591568,194.006607 136.930969,197.005264 
	C137.023193,197.820251 137.277374,198.616913 137.457230,199.421982 
	C137.867279,199.361771 138.277344,199.301575 138.687393,199.241364 
	C138.891479,197.711212 139.095581,196.181061 139.299667,194.650909 
	C139.652344,194.480591 140.005020,194.310257 140.357697,194.139938 
	C141.218094,195.621658 142.847702,197.132538 142.792847,198.579559 
	C142.636246,202.711319 145.010468,203.542908 148.250015,204.083481 
	C148.956009,204.201309 149.457352,205.545563 149.729919,206.663147 
	C148.879745,207.085770 148.352600,207.170227 147.825470,207.254684 
	C147.893982,207.465836 147.962494,207.676971 148.031021,207.888123 
	C148.687057,207.591644 149.343079,207.295181 149.999115,206.998718 
	C151.346756,207.598557 153.051270,207.867432 153.973495,208.861816 
	C156.497238,211.583023 158.691635,214.609680 161.316010,217.889832 
	C159.221222,219.803543 163.285507,227.657944 154.425446,226.003433 
z"/>
<path fill="#092739" opacity="1.000000" stroke="none" 
	d="
M92.972763,309.005005 
	C92.037933,306.966156 91.103111,304.927338 90.106628,302.753998 
	C92.210365,301.449524 93.881958,300.413025 94.984077,299.729645 
	C97.662910,300.384521 99.890900,300.929169 101.598358,301.346588 
	C103.533096,302.955048 105.292732,304.444641 107.085220,305.893524 
	C107.704941,306.394501 108.587013,306.658356 109.041679,307.262146 
	C112.545776,311.915405 119.175690,313.710968 121.816032,317.987518 
	C124.654366,322.584686 131.439667,324.524109 130.808853,331.855225 
	C126.822800,332.216156 123.031494,331.898376 118.373871,331.507965 
	C122.188583,324.585846 118.058968,322.211456 113.232964,319.522064 
	C109.245262,317.299835 103.956032,316.453827 102.194061,310.971375 
	C101.971550,310.279022 99.130028,310.428345 97.144348,310.134857 
	C97.054443,309.604736 96.804245,308.129517 96.461800,306.110382 
	C94.940681,307.372345 93.956726,308.188690 92.972763,309.005005 
z"/>
<path fill="#062233" opacity="1.000000" stroke="none" 
	d="
M377.999634,192.998169 
	C375.888641,194.538757 373.664368,195.949188 371.700531,197.658798 
	C369.949707,199.182938 368.486908,201.037964 366.196899,203.499527 
	C364.487579,204.217850 361.686432,205.485443 358.817871,206.575623 
	C355.808746,207.719223 356.044525,209.336838 357.635925,211.803879 
	C352.671936,214.309631 351.478455,218.758347 349.773438,223.111649 
	C349.286346,223.416595 349.100861,223.675217 348.997009,224.244980 
	C348.991608,224.662399 348.989227,224.829361 348.719055,224.806610 
	C347.379547,223.988571 346.307800,223.360229 346.343536,223.381180 
	C344.908905,224.984695 344.454437,225.492645 344.000000,226.000610 
	C341.559052,226.000610 339.118134,226.000610 337.057068,226.000610 
	C338.457031,222.817535 339.718109,219.950195 341.296570,216.361252 
	C341.936829,216.239563 343.508026,215.940979 344.400513,215.771362 
	C345.053314,212.793533 345.641571,210.110077 346.317932,207.024750 
	C350.169678,208.822433 352.225891,209.081924 354.618317,204.560699 
	C356.271362,201.436722 357.726746,194.803055 364.994812,196.978424 
	C364.812317,194.507172 364.673279,192.624252 364.535858,190.763214 
	C367.522949,191.028107 370.510895,191.293076 374.082764,191.279022 
	C375.111115,191.000000 375.555542,191.000000 376.105957,191.217804 
	C376.408813,191.707169 376.667511,191.892487 377.209137,192.100571 
	C377.706696,192.409897 377.896484,192.672745 377.999634,192.998169 
M348.245789,220.177109 
	C348.412750,220.121323 348.579712,220.065552 348.746674,220.009781 
	C348.578583,219.955429 348.410522,219.901077 348.245789,220.177109 
M367.411804,198.484741 
	C367.411804,198.484741 367.523407,198.417725 367.411804,198.484741 
z"/>
<path fill="#153449" opacity="1.000000" stroke="none" 
	d="
M92.984467,309.377930 
	C93.956726,308.188690 94.940681,307.372345 96.461800,306.110382 
	C96.804245,308.129517 97.054443,309.604736 97.144348,310.134857 
	C99.130028,310.428345 101.971550,310.279022 102.194061,310.971375 
	C103.956032,316.453827 109.245262,317.299835 113.232964,319.522064 
	C118.058968,322.211456 122.188583,324.585846 118.373871,331.507965 
	C123.031494,331.898376 126.822800,332.216156 130.808823,332.259705 
	C132.565704,333.627838 134.127853,335.270264 135.690018,336.912720 
	C135.556458,337.241760 135.422897,337.570801 135.289322,337.899811 
	C131.013504,336.819489 126.657288,335.984070 122.477226,334.612000 
	C110.901062,330.812256 100.654587,325.084076 94.552574,313.879700 
	C93.855820,312.600342 93.506546,311.131714 92.984467,309.377930 
M113.412971,322.479950 
	C113.412971,322.479950 113.526978,322.410370 113.412971,322.479950 
M109.402107,320.481506 
	C109.402107,320.481506 109.524162,320.406128 109.402107,320.481506 
z"/>
<path fill="#072332" opacity="1.000000" stroke="none" 
	d="
M376.000000,191.000000 
	C375.555542,191.000000 375.111115,191.000000 374.333313,191.000000 
	C373.412354,187.660767 375.420959,186.777283 378.187256,186.234985 
	C381.637482,185.558655 385.022675,184.550537 388.840332,183.583191 
	C387.501160,181.748856 386.689301,180.636780 386.447937,180.306152 
	C388.199402,178.796463 389.614807,177.576447 391.076080,176.316910 
	C391.450531,177.335480 392.006897,178.848907 392.732727,180.823227 
	C400.152191,179.010880 408.157379,172.802551 414.961090,182.498093 
	C414.107941,183.729477 413.190582,185.053604 412.131470,186.693237 
	C410.274780,185.911194 408.559814,184.813614 406.390076,183.424988 
	C406.843323,185.168823 407.242432,186.704407 407.641541,188.239990 
	C407.366669,188.445602 407.091766,188.651230 406.816895,188.856842 
	C405.961945,187.785110 405.107025,186.713379 404.112335,185.466476 
	C402.271576,186.185730 400.200714,186.994888 398.883759,187.509476 
	C396.781036,186.032333 395.180359,184.907898 392.834045,183.259659 
	C392.834045,185.675797 392.834045,187.006775 392.834045,188.337753 
	C392.488708,187.952499 392.143372,187.567261 391.798035,187.182007 
	C388.386108,189.179657 385.015656,191.255295 381.528198,193.110977 
	C380.806335,193.495071 379.649353,193.061462 378.346283,193.001450 
	C377.896484,192.672745 377.706696,192.409897 377.104309,191.882294 
	C376.580963,191.282974 376.321503,191.097992 376.000000,191.000000 
z"/>
<path fill="#1A394F" opacity="1.000000" stroke="none" 
	d="
M373.003021,217.009277 
	C375.405579,215.105789 377.588348,212.767349 380.268372,211.413010 
	C383.357758,209.851807 386.886230,209.159470 390.624847,208.052261 
	C389.778198,209.492355 388.530731,210.970001 386.860657,212.872284 
	C385.944275,214.172409 385.450500,215.047897 384.956696,215.923370 
	C379.532593,221.215057 374.199280,226.605179 368.630554,231.740021 
	C366.900848,233.334961 364.532867,234.237717 361.910767,235.732208 
	C360.917206,235.990906 360.469971,235.974747 360.022766,235.958588 
	C359.448090,235.469925 358.873444,234.981247 358.148621,233.851288 
	C359.332733,230.806244 360.666962,228.402512 362.056091,226.139160 
	C362.198486,226.328751 362.285980,226.377960 362.373474,226.427155 
	C362.248566,226.285172 362.123688,226.143158 362.031067,225.664948 
	C363.800934,222.412949 365.538452,219.497147 367.244476,216.634216 
	C367.832336,217.120331 369.189148,218.242325 370.791138,219.567062 
	C371.558105,218.680161 372.280579,217.844727 373.003021,217.009277 
z"/>
<path fill="#052030" opacity="1.000000" stroke="none" 
	d="
M117.213028,179.733063 
	C114.929085,180.664825 112.855377,181.332169 110.385406,181.653641 
	C109.626541,180.702423 109.263954,180.097076 108.901367,179.491714 
	C108.601723,180.327606 108.302078,181.163498 108.002441,181.999390 
	C108.002274,182.444595 108.002113,182.889801 107.680084,183.715729 
	C107.023872,185.465164 106.689529,186.833878 106.280624,188.507843 
	C104.986900,188.069244 103.305595,187.977509 102.358353,187.096497 
	C97.919670,182.968292 95.504684,182.635666 91.008698,186.000671 
	C87.962196,183.787033 88.317139,180.886627 88.919350,177.381088 
	C91.225418,179.105270 93.025581,180.451218 95.736450,182.478058 
	C96.449562,178.716858 97.030594,175.652283 97.381226,173.802933 
	C101.428978,172.592972 104.856735,171.309387 108.400566,170.643585 
	C109.715736,170.396469 111.628822,171.236771 112.705223,172.206955 
	C115.926109,175.110016 115.817261,175.230789 119.536201,173.566589 
	C121.864761,176.630890 120.366127,178.295303 117.213028,179.733063 
M104.595551,182.518661 
	C104.595551,182.518661 104.478127,182.590225 104.595551,182.518661 
z"/>
<path fill="#0F2F43" opacity="1.000000" stroke="none" 
	d="
M362.001221,225.998779 
	C360.666962,228.402512 359.332733,230.806244 357.998505,233.606125 
	C356.424042,232.530197 354.849579,231.058105 353.092834,228.974075 
	C352.272949,227.911041 351.635376,227.459961 350.997803,227.008865 
	C350.997803,227.008865 350.506012,226.994278 350.148193,226.733521 
	C349.522552,225.980621 349.254669,225.488480 348.986816,224.996338 
	C348.989227,224.829361 348.991608,224.662399 349.215759,224.139893 
	C349.712311,223.588593 349.896606,223.328674 349.990387,223.004608 
	C351.478455,218.758347 352.671936,214.309631 357.682739,212.131042 
	C359.299164,212.370377 361.102570,213.490982 361.823822,213.005127 
	C367.039490,209.491653 369.886078,212.744308 372.856750,216.705292 
	C372.280579,217.844727 371.558105,218.680161 370.791138,219.567062 
	C369.189148,218.242325 367.832336,217.120331 367.244476,216.634216 
	C365.538452,219.497147 363.800934,222.412949 362.031677,225.664368 
	C362.000000,226.000000 362.001221,225.998779 362.001221,225.998779 
z"/>
<path fill="#08263A" opacity="1.000000" stroke="none" 
	d="
M383.990997,318.985229 
	C388.395996,315.987885 392.828613,313.029877 397.191010,309.971710 
	C398.706940,308.908997 400.084412,307.637543 401.463440,306.393066 
	C404.500122,303.652771 407.497589,300.868988 410.511017,298.102936 
	C411.071838,298.345947 411.632660,298.588959 412.193451,298.831970 
	C410.990448,303.410980 409.787445,307.989960 407.950348,312.835571 
	C406.880829,314.074341 406.445404,315.046509 406.010010,316.018677 
	C406.010010,316.018677 405.997498,316.001190 405.780823,316.106659 
	C405.280548,316.413818 405.093292,316.682617 405.002380,317.018524 
	C405.002380,317.018524 405.002991,316.996307 404.657959,316.965485 
	C402.360107,315.584778 400.407318,314.234894 399.082520,313.319153 
	C396.156250,315.441071 393.721954,317.206207 391.592224,318.750519 
	C391.965759,319.543610 392.528046,320.737427 393.090302,321.931274 
	C392.795654,322.169556 392.500977,322.407837 392.206299,322.646149 
	C389.467865,321.425842 386.729431,320.205536 383.990997,318.985229 
z"/>
<path fill="#0D2A3F" opacity="1.000000" stroke="none" 
	d="
M91.043823,186.347900 
	C95.504684,182.635666 97.919670,182.968292 102.358353,187.096497 
	C103.305595,187.977509 104.986900,188.069244 106.280624,188.507843 
	C106.689529,186.833878 107.023872,185.465164 107.681091,184.049622 
	C109.956230,185.376129 112.365677,186.419449 113.686180,188.248795 
	C114.455803,189.314987 113.482033,191.639633 113.147873,193.697662 
	C107.228149,190.559570 106.297501,196.362442 103.302902,198.954956 
	C101.518211,198.023560 99.834419,197.260925 98.701462,196.002411 
	C96.021385,193.025330 93.603096,189.812592 91.043823,186.347900 
M109.591232,187.518936 
	C109.591232,187.518936 109.476723,187.588028 109.591232,187.518936 
z"/>
<path fill="#14344B" opacity="1.000000" stroke="none" 
	d="
M383.801636,319.119781 
	C386.729431,320.205536 389.467865,321.425842 392.206299,322.646149 
	C392.500977,322.407837 392.795654,322.169556 393.090302,321.931274 
	C392.528046,320.737427 391.965759,319.543610 391.592224,318.750519 
	C393.721954,317.206207 396.156250,315.441071 399.082520,313.319153 
	C400.407318,314.234894 402.360107,315.584778 404.667175,316.972382 
	C401.071655,320.978027 397.348145,325.214752 393.081512,328.806274 
	C390.773346,330.749237 387.538147,331.590881 384.364014,332.607300 
	C384.003387,330.519073 383.999847,328.752930 384.271637,326.773529 
	C384.426453,324.700043 388.050385,322.473267 384.002441,320.997498 
	C383.872375,320.416443 383.742340,319.835358 383.801636,319.119781 
M396.515839,318.408417 
	C396.515839,318.408417 396.586304,318.524109 396.515839,318.408417 
z"/>
<path fill="#F3F7F8" opacity="1.000000" stroke="none" 
	d="
M145.426392,363.671082 
	C144.485458,367.598999 142.172455,369.841339 138.608719,368.968018 
	C136.406937,368.428436 133.346512,366.475861 132.967133,364.674255 
	C132.504196,362.475708 133.792572,359.115845 135.486267,357.418457 
	C139.165771,353.731018 144.222214,356.850311 145.426392,363.671082 
z"/>
<path fill="#F3F7F8" opacity="1.000000" stroke="none" 
	d="
M200.070038,96.564476 
	C196.857208,101.414841 193.313171,102.487366 189.693695,99.993553 
	C186.345016,97.686317 186.265686,94.587296 187.923813,91.277115 
	C189.486328,88.157806 192.291550,87.145897 195.422775,88.076584 
	C199.284988,89.224548 200.783432,92.169441 200.070038,96.564476 
z"/>
<path fill="#F3F7F8" opacity="1.000000" stroke="none" 
	d="
M319.064362,96.581863 
	C317.629059,100.524170 314.784485,102.039185 311.458038,100.928795 
	C309.443420,100.256310 306.896667,98.117813 306.559937,96.277367 
	C306.166168,94.125031 307.286102,90.858521 308.927795,89.424110 
	C310.356171,88.176071 313.639404,88.116013 315.719879,88.762970 
	C319.046295,89.797394 319.662354,92.920212 319.064362,96.581863 
z"/>
<path fill="#F3F7F8" opacity="1.000000" stroke="none" 
	d="
M361.406311,369.128876 
	C356.294128,366.198975 354.708069,361.654419 357.994812,358.713928 
	C359.745392,357.147797 363.095947,356.184814 365.367065,356.659424 
	C368.906525,357.399048 369.850433,360.781036 369.140900,364.221252 
	C368.331604,368.145203 365.621582,369.556549 361.406311,369.128876 
z"/>
<path fill="#1A394F" opacity="1.000000" stroke="none" 
	d="
M130.075150,226.325241 
	C130.935104,224.936752 131.952606,223.847519 132.941086,222.789337 
	C135.460114,223.459335 138.182419,224.183426 141.910522,225.175034 
	C139.875381,226.394272 138.739746,227.074631 136.308441,228.531219 
	C140.129654,229.367096 142.922256,229.977966 145.929398,230.853058 
	C144.594238,233.341537 143.044556,235.565811 141.037689,238.446274 
	C137.172302,234.217148 133.702484,230.420822 130.075150,226.325241 
z"/>
<path fill="#08263A" opacity="1.000000" stroke="none" 
	d="
M383.757355,321.275970 
	C388.050385,322.473267 384.426453,324.700043 384.040222,326.504364 
	C376.948120,325.325073 376.623138,325.665192 377.318176,332.628815 
	C375.797791,333.831116 374.401459,334.935333 373.005127,336.039551 
	C371.585175,336.545715 370.165253,337.051910 368.725067,337.565308 
	C367.797638,330.666687 374.138245,323.868652 383.757355,321.275970 
z"/>
<path fill="#0F2F43" opacity="1.000000" stroke="none" 
	d="
M373.411865,336.026794 
	C374.401459,334.935333 375.797791,333.831116 377.318176,332.628815 
	C376.623138,325.665192 376.948120,325.325073 383.764893,326.717621 
	C383.999847,328.752930 384.003387,330.519073 384.003418,332.640808 
	C380.606171,334.002319 377.212372,335.008179 373.411865,336.026794 
z"/>
<path fill="#052030" opacity="1.000000" stroke="none" 
	d="
M136.000214,187.588272 
	C135.822540,189.473373 135.645081,190.947342 135.252563,194.207458 
	C132.028290,189.676544 129.553802,186.199265 127.040161,182.359390 
	C133.181152,179.702896 135.621750,181.107788 136.000214,187.588272 
z"/>
<path fill="#082130" opacity="1.000000" stroke="none" 
	d="
M344.577332,255.649811 
	C345.757568,253.750763 347.357208,251.974731 349.215179,250.017334 
	C351.921082,250.192108 352.867340,251.661942 350.927826,253.303101 
	C349.369781,254.621490 347.004059,254.985367 344.577332,255.649811 
z"/>
<path fill="#052030" opacity="1.000000" stroke="none" 
	d="
M121.805878,180.768036 
	C121.366631,182.656723 120.730911,184.307632 119.595314,187.256683 
	C118.238106,184.802628 117.654449,183.747284 117.040306,182.343506 
	C118.543015,181.506790 120.076210,181.018524 121.805878,180.768036 
z"/>
<path fill="#082130" opacity="1.000000" stroke="none" 
	d="
M399.669586,218.003433 
	C398.375397,219.825195 396.691772,221.649445 394.707764,223.642273 
	C393.777435,219.983627 395.864777,218.437424 399.669586,218.003433 
z"/>
<path fill="#082130" opacity="1.000000" stroke="none" 
	d="
M348.719055,224.806625 
	C349.254669,225.488480 349.522552,225.980621 349.902222,226.730011 
	C348.262634,226.687042 346.511169,226.386841 344.379883,226.043610 
	C344.454437,225.492645 344.908905,224.984695 346.343536,223.381180 
	C346.307800,223.360229 347.379547,223.988571 348.719055,224.806625 
z"/>
<path fill="#082130" opacity="1.000000" stroke="none" 
	d="
M311.871887,295.102051 
	C311.387115,293.855896 310.946411,292.180878 310.720795,290.242920 
	C311.262573,291.544373 311.589264,293.108765 311.871887,295.102051 
z"/>
<path fill="#082130" opacity="1.000000" stroke="none" 
	d="
M360.019562,236.302429 
	C360.469971,235.974747 360.917206,235.990906 361.700897,236.012436 
	C361.848724,236.871887 361.660034,237.725952 361.471344,238.580017 
	C360.986359,237.935425 360.501373,237.290833 360.019562,236.302429 
z"/>
<path fill="#082130" opacity="1.000000" stroke="none" 
	d="
M385.161285,216.173950 
	C385.450500,215.047897 385.944275,214.172409 386.725677,213.166077 
	C386.464142,214.164993 385.915009,215.294754 385.161285,216.173950 
z"/>
<path fill="#082130" opacity="1.000000" stroke="none" 
	d="
M345.308228,266.525696 
	C344.551849,266.531525 344.015137,266.326172 343.478455,266.120850 
	C343.613556,265.846161 343.748657,265.571472 343.883759,265.296783 
	C344.431824,265.636047 344.979858,265.975281 345.308228,266.525696 
z"/>
<path fill="#14344B" opacity="1.000000" stroke="none" 
	d="
M406.300354,315.879028 
	C406.445404,315.046509 406.880829,314.074341 407.664948,313.050934 
	C407.539337,313.912903 407.065033,314.826141 406.300354,315.879028 
z"/>
<path fill="#082130" opacity="1.000000" stroke="none" 
	d="
M351.039246,227.327820 
	C351.635376,227.459961 352.272949,227.911041 352.947601,228.683212 
	C352.350006,228.551788 351.715332,228.099289 351.039246,227.327820 
z"/>
<path fill="#082130" opacity="1.000000" stroke="none" 
	d="
M320.173615,297.130341 
	C319.322388,297.552063 318.054474,297.927734 316.391052,298.179260 
	C317.249359,297.731506 318.503113,297.407898 320.173615,297.130341 
z"/>
<path fill="#082130" opacity="1.000000" stroke="none" 
	d="
M373.556152,244.010864 
	C373.411469,244.554779 372.963989,245.149002 372.247070,245.833374 
	C372.402924,245.302750 372.828125,244.681976 373.556152,244.010864 
z"/>
<path fill="#082130" opacity="1.000000" stroke="none" 
	d="
M350.856812,240.170776 
	C350.329163,239.882217 349.828217,239.240311 349.249786,238.297455 
	C349.742706,238.603470 350.313110,239.210449 350.856812,240.170776 
z"/>
<path fill="#082130" opacity="1.000000" stroke="none" 
	d="
M312.124817,288.096680 
	C312.124237,287.621124 312.276855,287.315887 312.683716,286.928650 
	C312.717957,287.320099 312.497986,287.793549 312.124817,288.096680 
z"/>
<path fill="#082130" opacity="1.000000" stroke="none" 
	d="
M355.098999,262.365662 
	C355.077026,262.783752 354.760284,263.201782 354.192078,263.710938 
	C354.228455,263.323212 354.516296,262.844360 355.098999,262.365662 
z"/>
<path fill="#082130" opacity="1.000000" stroke="none" 
	d="
M356.517456,260.997803 
	C356.495178,261.362976 356.178772,261.782043 355.612732,262.298889 
	C355.649841,261.948334 355.936584,261.500031 356.517456,260.997803 
z"/>
<path fill="#082130" opacity="1.000000" stroke="none" 
	d="
M377.539764,240.025116 
	C377.503601,240.433426 377.141663,240.908234 376.497681,241.501984 
	C376.548401,241.111176 376.881195,240.601379 377.539764,240.025116 
z"/>
<path fill="#072332" opacity="1.000000" stroke="none" 
	d="
M383.718628,183.603134 
	C383.847015,183.440704 384.069611,183.416946 384.292206,183.393188 
	C384.132416,183.509415 383.972626,183.625610 383.718628,183.603134 
z"/>
<path fill="#082130" opacity="1.000000" stroke="none" 
	d="
M345.864929,235.131927 
	C345.330078,235.258331 344.591827,235.014923 343.574951,234.500488 
	C344.084747,234.406998 344.873169,234.584549 345.864929,235.131927 
z"/>
<path fill="#08263A" opacity="1.000000" stroke="none" 
	d="
M394.550629,305.468628 
	C394.583893,305.524536 394.517365,305.412689 394.550629,305.468628 
z"/>
<path fill="#14344B" opacity="1.000000" stroke="none" 
	d="
M405.230896,316.916626 
	C405.093292,316.682617 405.280548,316.413818 405.791077,316.107880 
	C405.831848,316.274017 405.645660,316.544373 405.230896,316.916626 
z"/>
<path fill="#1A394F" opacity="1.000000" stroke="none" 
	d="
M391.010162,206.984619 
	C391.186646,206.987381 391.363159,206.990158 391.805115,207.000671 
	C391.870728,207.274094 391.670868,207.539764 391.244263,207.915741 
	C391.007416,207.858246 390.997284,207.690430 390.992584,207.262360 
	C390.998016,207.002090 391.010162,206.984619 391.010162,206.984619 
z"/>
<path fill="#082639" opacity="1.000000" stroke="none" 
	d="
M144.532654,197.551788 
	C144.476105,197.585739 144.589203,197.517853 144.532654,197.551788 
z"/>
<path fill="#072332" opacity="1.000000" stroke="none" 
	d="
M413.532837,177.551697 
	C413.476746,177.585464 413.588898,177.517929 413.532837,177.551697 
z"/>
<path fill="#072332" opacity="1.000000" stroke="none" 
	d="
M395.554077,177.465530 
	C395.589600,177.523727 395.518524,177.407333 395.554077,177.465530 
z"/>
<path fill="#072332" opacity="1.000000" stroke="none" 
	d="
M403.533661,174.552887 
	C403.476868,174.587311 403.590454,174.518478 403.533661,174.552887 
z"/>
<path fill="#052030" opacity="1.000000" stroke="none" 
	d="
M116.448807,169.533661 
	C116.414734,169.477005 116.482887,169.590332 116.448807,169.533661 
z"/>
<path fill="#052030" opacity="1.000000" stroke="none" 
	d="
M112.467178,169.449417 
	C112.523056,169.415955 112.411293,169.482880 112.467178,169.449417 
z"/>
<path fill="#041F2B" opacity="1.000000" stroke="none" 
	d="
M305.002319,170.531982 
	C303.724487,171.305527 302.733124,172.234131 301.744537,172.231140 
	C269.798157,172.134842 237.851639,171.835556 205.906342,171.937683 
	C202.421417,171.948822 200.283371,171.227722 197.953186,168.810745 
	C192.872787,163.541092 187.401855,158.650024 182.154739,153.538330 
	C178.254333,149.738602 179.452469,143.607544 184.289780,141.316147 
	C197.642410,134.991135 210.952927,128.576828 224.253479,122.142754 
	C226.380646,121.113747 227.957504,120.561874 229.694962,123.065247 
	C241.813690,140.526169 267.546753,140.233871 278.253662,121.890945 
	C278.413666,121.616837 278.726410,121.431877 279.622955,120.590637 
	C294.787384,127.621315 310.255768,134.792923 324.887970,141.576859 
	C327.615143,149.154572 324.786041,153.672836 319.503784,157.686783 
	C314.482452,161.502487 310.006042,166.035278 305.002319,170.531982 
z"/>
<path fill="#041F2B" opacity="1.000000" stroke="none" 
	d="
M210.975342,198.010193 
	C210.973938,193.541672 210.973938,189.571442 210.973938,185.046234 
	C237.961197,185.046234 264.637360,185.046234 291.938110,185.046234 
	C291.938110,197.122864 291.990936,209.224060 291.849823,221.323029 
	C291.836853,222.433502 290.784058,223.738632 289.878479,224.600845 
	C276.743073,237.107101 263.550323,249.553085 250.371292,262.013489 
	C250.749603,262.502380 251.127914,262.991302 251.506226,263.480194 
	C250.753632,262.891602 249.921097,262.380890 249.260330,261.702789 
	C237.758621,249.899628 226.153290,238.192352 214.907654,226.149399 
	C212.882965,223.981155 211.583633,220.484772 211.302094,217.475037 
	C210.714828,211.197647 211.031464,204.835693 210.975342,198.010193 
M259.816376,207.298889 
	C256.217834,210.650223 252.619263,214.001572 249.011261,217.361725 
	C246.895615,215.124207 244.571518,212.512283 242.079666,210.071640 
	C239.252808,207.302917 236.023392,207.013504 233.297272,209.964828 
	C230.693970,212.783203 231.560440,215.727448 234.070465,218.376633 
	C237.502335,221.998779 240.849548,225.701202 244.229828,229.372192 
	C248.693298,234.219528 251.551941,234.353027 256.367676,229.614166 
	C262.064941,224.007858 267.565857,218.201981 273.264496,212.597137 
	C276.446442,209.467575 275.971375,206.298645 273.516388,203.276382 
	C270.934326,200.097641 267.873352,200.170456 264.840179,202.865234 
	C263.347870,204.191071 261.836853,205.495895 259.816376,207.298889 
z"/>
<path fill="#081F2B" opacity="1.000000" stroke="none" 
	d="
M238.442596,109.408844 
	C238.337616,100.443298 242.030579,94.790123 248.869705,92.909813 
	C255.852524,90.989990 262.194977,93.444946 265.606995,99.388260 
	C269.897064,106.861023 267.606110,115.005287 259.954956,119.481110 
	C253.014160,123.541374 244.200653,121.122940 240.146103,113.963135 
	C239.420425,112.681625 239.067047,111.189285 238.442596,109.408844 
z"/>
<path fill="#0A202E" opacity="1.000000" stroke="none" 
	d="
M343.095764,135.014725 
	C344.383209,134.191132 345.317932,133.470001 346.370239,133.030411 
	C351.648834,130.825241 357.812775,132.898514 360.586304,137.741806 
	C363.281067,142.447540 362.184723,148.208130 357.954102,151.572372 
	C353.462555,155.144089 347.472443,155.099258 343.384644,151.463348 
	C338.929688,147.500854 338.175049,141.693115 341.496429,136.741852 
	C341.861511,136.197601 342.360382,135.743103 343.095764,135.014725 
z"/>
<path fill="#091E2B" opacity="1.000000" stroke="none" 
	d="
M165.949280,148.536255 
	C161.264496,154.334747 156.220184,155.705368 150.962769,152.918808 
	C146.479401,150.542511 144.276703,145.572281 145.548279,140.701385 
	C147.225891,134.275040 153.624054,130.779648 159.918274,132.850876 
	C166.444702,134.998505 168.776428,140.756851 165.949280,148.536255 
z"/>
<path fill="#1A394F" opacity="1.000000" stroke="none" 
	d="
M390.989990,207.010178 
	C390.255585,206.964386 389.529236,206.910507 388.802887,206.856628 
	C388.826874,206.647705 388.850861,206.438797 388.874847,206.229874 
	C389.473053,206.323715 390.071259,206.417572 390.839813,206.748016 
	C391.010162,206.984619 390.998016,207.002090 390.989990,207.010178 
z"/>
<path fill="#062233" opacity="1.000000" stroke="none" 
	d="
M363.465790,207.446228 
	C363.522797,207.411545 363.408783,207.480927 363.465790,207.446228 
z"/>
<path fill="#062233" opacity="1.000000" stroke="none" 
	d="
M365.446289,205.533478 
	C365.411133,205.475784 365.481476,205.591171 365.446289,205.533478 
z"/>
<path fill="#0D2A3F" opacity="1.000000" stroke="none" 
	d="
M114.884987,195.247009 
	C116.633690,193.157700 118.274010,191.359833 119.849045,189.633499 
	C121.338814,192.514740 123.004074,195.424133 124.306061,198.487900 
	C124.604797,199.190887 123.654137,200.424835 123.131477,201.713318 
	C121.873260,202.528702 120.762054,203.045181 120.353516,203.235077 
	C118.209549,201.243683 116.286697,199.589294 114.566353,197.745926 
	C114.231941,197.387604 114.686142,196.293289 114.884987,195.247009 
z"/>
<path fill="#082639" opacity="1.000000" stroke="none" 
	d="
M140.646881,213.734161 
	C140.631760,213.991272 140.494156,214.131714 140.356537,214.272156 
	C140.412491,214.053940 140.468445,213.835724 140.646881,213.734161 
z"/>
<path fill="#1A394F" opacity="1.000000" stroke="none" 
	d="
M148.015259,229.014282 
	C147.586685,228.898697 147.145309,228.768585 146.703918,228.638474 
	C147.061539,228.628494 147.419144,228.618515 147.907593,228.817017 
	C148.038422,229.025482 148.002457,228.999771 148.015259,229.014282 
z"/>
<path fill="#082639" opacity="1.000000" stroke="none" 
	d="
M151.998779,222.001007 
	C151.875397,221.858505 151.753235,221.714981 151.631088,221.571442 
	C151.718445,221.620377 151.805786,221.669296 151.947571,221.857895 
	C152.001984,221.997559 152.000000,222.000000 151.998779,222.001007 
z"/>
<path fill="#0D2A3F" opacity="1.000000" stroke="none" 
	d="
M108.333405,181.999390 
	C108.302078,181.163498 108.601723,180.327606 108.901367,179.491714 
	C109.263954,180.097076 109.626541,180.702423 109.988495,181.653595 
	C109.546700,181.999390 109.105545,181.999374 108.333405,181.999390 
z"/>
<path fill="#021D2A" opacity="1.000000" stroke="none" 
	d="
M149.999557,206.999359 
	C149.343079,207.295181 148.687057,207.591644 148.031021,207.888123 
	C147.962494,207.676971 147.893982,207.465836 147.825470,207.254684 
	C148.352600,207.170227 148.879745,207.085770 149.704346,207.001556 
	C150.001816,207.001785 150.000000,207.000000 149.999557,206.999359 
z"/>
<path fill="#0F2F43" opacity="1.000000" stroke="none" 
	d="
M348.244110,220.011917 
	C348.410522,219.901077 348.578583,219.955429 348.746674,220.009781 
	C348.579712,220.065552 348.412750,220.121323 348.244110,220.011917 
z"/>
<path fill="#082130" opacity="1.000000" stroke="none" 
	d="
M349.773438,223.111649 
	C349.896606,223.328674 349.712311,223.588593 349.218750,223.889435 
	C349.100861,223.675217 349.286346,223.416595 349.773438,223.111649 
z"/>
<path fill="#0E2C40" opacity="1.000000" stroke="none" 
	d="
M367.467590,198.451233 
	C367.523407,198.417725 367.411804,198.484741 367.467590,198.451233 
z"/>
<path fill="#021D2A" opacity="1.000000" stroke="none" 
	d="
M376.105957,191.217804 
	C376.321503,191.097992 376.580963,191.282974 376.883179,191.773224 
	C376.667511,191.892487 376.408813,191.707169 376.105957,191.217804 
z"/>
<path fill="#092739" opacity="1.000000" stroke="none" 
	d="
M113.469971,322.445160 
	C113.526978,322.410370 113.412971,322.479950 113.469971,322.445160 
z"/>
<path fill="#092739" opacity="1.000000" stroke="none" 
	d="
M109.463135,320.443817 
	C109.524162,320.406128 109.402107,320.481506 109.463135,320.443817 
z"/>
<path fill="#0F2F43" opacity="1.000000" stroke="none" 
	d="
M361.999390,226.000580 
	C362.123688,226.143158 362.248566,226.285172 362.373474,226.427155 
	C362.285980,226.377960 362.198486,226.328751 362.056091,226.139160 
	C362.001221,225.998779 362.000000,226.000000 361.999390,226.000580 
z"/>
<path fill="#0D2A3F" opacity="1.000000" stroke="none" 
	d="
M104.536835,182.554443 
	C104.478127,182.590225 104.595551,182.518661 104.536835,182.554443 
z"/>
<path fill="#082639" opacity="1.000000" stroke="none" 
	d="
M109.533981,187.553482 
	C109.476723,187.588028 109.591232,187.518936 109.533981,187.553482 
z"/>
<path fill="#08263A" opacity="1.000000" stroke="none" 
	d="
M396.551086,318.466248 
	C396.586304,318.524109 396.515839,318.408417 396.551086,318.466248 
z"/>
<path fill="#F8FAFB" opacity="1.000000" stroke="none" 
	d="
M260.075317,207.054565 
	C261.836853,205.495895 263.347870,204.191071 264.840179,202.865234 
	C267.873352,200.170456 270.934326,200.097641 273.516388,203.276382 
	C275.971375,206.298645 276.446442,209.467575 273.264496,212.597137 
	C267.565857,218.201981 262.064941,224.007858 256.367676,229.614166 
	C251.551941,234.353027 248.693298,234.219528 244.229828,229.372192 
	C240.849548,225.701202 237.502335,221.998779 234.070465,218.376633 
	C231.560440,215.727448 230.693970,212.783203 233.297272,209.964828 
	C236.023392,207.013504 239.252808,207.302917 242.079666,210.071640 
	C244.571518,212.512283 246.895615,215.124207 249.011261,217.361725 
	C252.619263,214.001572 256.217834,210.650223 260.075317,207.054565 
z"/>
</svg>